<svg width="19" height="19" viewBox="0 0 19 19" fill="none" xmlns="http://www.w3.org/2000/svg">
<g id="phone">
<path id="Shape" fill-rule="evenodd" clip-rule="evenodd" d="M17.9658 13.7278V16.2869C17.9677 16.7673 17.7671 17.2263 17.4131 17.5511C17.0591 17.8758 16.5846 18.0363 16.1061 17.9931C13.4811 17.7078 10.9596 16.8108 8.7442 15.3742C6.68305 14.0644 4.93556 12.3169 3.62583 10.2558C2.18414 8.03034 1.28694 5.49657 1.00693 2.85976C0.963828 2.38279 1.12318 1.90966 1.44606 1.55596C1.76894 1.20225 2.22561 1.00053 2.70452 1.00008H5.26371C6.12006 0.991655 6.84998 1.61938 6.96983 2.46735C7.07785 3.28635 7.27817 4.09049 7.56697 4.86445C7.80134 5.48793 7.65144 6.1908 7.18309 6.66441L6.09971 7.7478C7.31409 9.88348 9.0824 11.6518 11.2181 12.8662L12.3015 11.7828C12.7751 11.3144 13.4779 11.1645 14.1014 11.3989C14.8754 11.6877 15.6795 11.888 16.4985 11.996C17.3563 12.1171 17.9873 12.8617 17.9658 13.7278Z" stroke="white" stroke-linecap="round" stroke-linejoin="round"/>
</g>
</svg>
